<?xml version="1.0" encoding="utf-8" standalone="no"?>
<!DOCTYPE svg PUBLIC "-//W3C//DTD SVG 1.1//EN"
        "http://www.w3.org/Graphics/SVG/1.1/DTD/svg11.dtd">
<svg xmlns:xlink="http://www.w3.org/1999/xlink" width="720pt" height="432pt" viewBox="0 0 720 432" xmlns="http://www.w3.org/2000/svg" version="1.1">
    <metadata>
        <rdf:RDF xmlns:dc="http://purl.org/dc/elements/1.1/" xmlns:cc="http://creativecommons.org/ns#" xmlns:rdf="http://www.w3.org/1999/02/22-rdf-syntax-ns#">
            <cc:Work>
                <dc:type rdf:resource="http://purl.org/dc/dcmitype/StillImage"/>
                <dc:date>2024-06-04T13:31:05.095659</dc:date>
                <dc:format>image/svg+xml</dc:format>
                <dc:creator>
                    <cc:Agent>
                        <dc:title>Matplotlib v3.9.0, https://matplotlib.org/</dc:title>
                    </cc:Agent>
                </dc:creator>
            </cc:Work>
        </rdf:RDF>
    </metadata>
    <defs>
        <style type="text/css">*{stroke-linejoin: round; stroke-linecap: butt}</style>
    </defs>
    <g id="figure_1">
        <g id="patch_1">
            <path d="M 0 432
L 720 432
L 720 0
L 0 0
z
" style="fill: #ffffff"/>
        </g>
        <g id="axes_1">
            <g id="patch_2">
                <path d="M 536.4 151.632
C 551.198333 151.632 565.392557 148.127095 575.856558 141.8892
C 586.32056 135.651305 592.2 127.189716 592.2 118.368
C 592.2 109.546284 586.32056 101.084695 575.856558 94.8468
C 565.392557 88.608905 551.198333 85.104 536.4 85.104
C 521.601667 85.104 507.407443 88.608905 496.943442 94.8468
C 486.47944 101.084695 480.6 109.546284 480.6 118.368
C 480.6 127.189716 486.47944 135.651305 496.943442 141.8892
C 507.407443 148.127095 521.601667 151.632 536.4 151.632
z
" clip-path="url(#p4a5f3e1a51)" style="fill: #ffff00; stroke: #ffff00; stroke-linejoin: miter"/>
            </g>
            <g id="PolyCollection_1">
                <defs>
                    <path id="m27e4d4dcfe" d="M 115.363636 -62.64
L 115.363636 -192.24
L 116.380215 -194.682752
L 117.396794 -197.114854
L 118.413372 -199.535473
L 119.429951 -201.943782
L 120.446529 -204.338965
L 121.463108 -206.720211
L 122.479687 -209.08672
L 123.496265 -211.437697
L 124.512844 -213.772358
L 125.529422 -216.08993
L 126.546001 -218.389644
L 127.56258 -220.670746
L 128.579158 -222.932487
L 129.595737 -225.174132
L 130.612316 -227.394954
L 131.628894 -229.594236
L 132.645473 -231.771273
L 133.662051 -233.92537
L 134.67863 -236.055843
L 135.695209 -238.16202
L 136.711787 -240.24324
L 137.728366 -242.298853
L 138.744944 -244.328221
L 139.761523 -246.33072
L 140.778102 -248.305735
L 141.79468 -250.252666
L 142.811259 -252.170923
L 143.827837 -254.059932
L 144.844416 -255.919128
L 145.860995 -257.747962
L 146.877573 -259.545897
L 147.894152 -261.31241
L 148.910731 -263.046989
L 149.927309 -264.749138
L 150.943888 -266.418374
L 151.960466 -268.054229
L 152.977045 -269.656245
L 153.993624 -271.223983
L 155.010202 -272.757014
L 156.026781 -274.254925
L 157.043359 -275.717319
L 158.059938 -277.14381
L 159.076517 -278.534028
L 160.093095 -279.887619
L 161.109674 -281.20424
L 162.126253 -282.483567
L 163.142831 -283.725288
L 164.15941 -284.929105
L 165.175988 -286.094738
L 166.192567 -287.221919
L 167.209146 -288.310397
L 168.225724 -289.359934
L 169.242303 -290.370308
L 170.258881 -291.341313
L 171.27546 -292.272755
L 172.292039 -293.164459
L 173.308617 -294.016261
L 174.325196 -294.828016
L 175.341774 -295.59959
L 176.358353 -296.330867
L 177.374932 -297.021744
L 178.39151 -297.672135
L 179.408089 -298.281968
L 180.424668 -298.851184
L 181.441246 -299.379743
L 182.457825 -299.867614
L 183.474403 -300.314787
L 184.490982 -300.721263
L 185.507561 -301.087058
L 186.524139 -301.412204
L 187.540718 -301.696745
L 188.557296 -301.940742
L 189.573875 -302.144269
L 190.590454 -302.307415
L 191.607032 -302.430283
L 192.623611 -302.512989
L 193.640189 -302.555664
L 194.656768 -302.558453
L 195.673347 -302.521515
L 196.689925 -302.445022
L 197.706504 -302.329159
L 198.723083 -302.174126
L 199.739661 -301.980135
L 200.75624 -301.747412
L 201.772818 -301.476196
L 202.789397 -301.166738
L 203.805976 -300.819303
L 204.822554 -300.434167
L 205.839133 -300.011621
L 206.855711 -299.551965
L 207.87229 -299.055514
L 208.888869 -298.522594
L 209.905447 -297.953542
L 210.922026 -297.348708
L 211.938604 -296.708452
L 212.955183 -296.033147
L 213.971762 -295.323177
L 214.98834 -294.578935
L 216.004919 -293.800826
L 217.021498 -292.989267
L 218.038076 -292.144683
L 219.054655 -291.267509
L 220.071233 -290.358193
L 221.087812 -289.417191
L 222.104391 -288.444967
L 223.120969 -287.441997
L 224.137548 -286.408765
L 225.154126 -285.345763
L 226.170705 -284.253494
L 227.187284 -283.132468
L 228.203862 -281.983203
L 229.220441 -280.806227
L 230.237019 -279.602073
L 231.253598 -278.371285
L 232.270177 -277.114411
L 233.286755 -275.832008
L 234.303334 -274.524641
L 235.319913 -273.19288
L 236.336491 -271.837301
L 237.35307 -270.458489
L 238.369648 -269.057032
L 239.386227 -267.633525
L 240.402806 -266.18857
L 241.419384 -264.722772
L 242.435963 -263.236742
L 243.452541 -261.731097
L 244.46912 -260.206456
L 245.485699 -258.663445
L 246.502277 -257.102693
L 247.518856 -255.524832
L 248.535435 -253.930499
L 249.552013 -252.320334
L 250.568592 -250.69498
L 251.58517 -249.055083
L 252.601749 -247.401291
L 253.618328 -245.734255
L 254.634906 -244.054629
L 255.651485 -242.363067
L 256.668063 -240.660226
L 257.684642 -238.946765
L 258.701221 -237.223342
L 259.717799 -235.490619
L 260.734378 -233.749255
L 261.750956 -231.999913
L 262.767535 -230.243255
L 263.784114 -228.479941
L 264.800692 -226.710633
L 265.817271 -224.935993
L 266.83385 -223.15668
L 267.850428 -221.373354
L 268.867007 -219.586673
L 269.883585 -217.797294
L 270.900164 -216.005871
L 271.916743 -214.213057
L 272.933321 -212.419505
L 273.9499 -210.625861
L 274.966478 -208.832773
L 275.983057 -207.040884
L 276.999636 -205.250833
L 278.016214 -203.463259
L 279.032793 -201.678794
L 280.049371 -199.89807
L 281.06595 -198.121711
L 282.082529 -196.35034
L 283.099107 -194.584574
L 284.115686 -192.825028
L 285.132265 -191.072309
L 286.148843 -189.327022
L 287.165422 -187.589764
L 288.182 -185.86113
L 289.198579 -184.141706
L 290.215158 -182.432076
L 291.231736 -180.732815
L 292.248315 -179.044494
L 293.264893 -177.367677
L 294.281472 -175.702921
L 295.298051 -174.050778
L 296.314629 -172.411792
L 297.331208 -170.786501
L 298.347786 -169.175434
L 299.364365 -167.579114
L 300.380944 -165.998059
L 301.397522 -164.432775
L 302.414101 -162.883763
L 303.43068 -161.351516
L 304.447258 -159.836518
L 305.463837 -158.339246
L 306.480415 -156.860168
L 307.496994 -155.399743
L 308.513573 -153.958423
L 309.530151 -152.536651
L 310.54673 -151.134859
L 311.563308 -149.753473
L 312.579887 -148.392908
L 313.596466 -147.05357
L 314.613044 -145.735858
L 315.629623 -144.440159
L 316.646201 -143.166852
L 317.66278 -141.916304
L 318.679359 -140.688877
L 319.695937 -139.484918
L 320.712516 -138.304767
L 321.729095 -137.148754
L 322.745673 -136.0172
L 323.762252 -134.910412
L 324.77883 -133.828691
L 325.795409 -132.772326
L 326.811988 -131.741595
L 327.828566 -130.736768
L 328.845145 -129.758102
L 329.861723 -128.805845
L 330.878302 -127.880235
L 331.894881 -126.981497
L 332.911459 -126.109848
L 333.928038 -125.265494
L 334.944617 -124.448628
L 335.961195 -123.659437
L 336.977774 -122.898092
L 337.994352 -122.164756
L 339.010931 -121.459582
L 340.02751 -120.78271
L 341.044088 -120.134272
L 342.060667 -119.514386
L 343.077245 -118.923163
L 344.093824 -118.360699
L 345.110403 -117.827083
L 346.126981 -117.322391
L 347.14356 -116.846689
L 348.160138 -116.400033
L 349.176717 -115.982466
L 350.193296 -115.594024
L 351.209874 -115.23473
L 352.226453 -114.904595
L 353.243032 -114.603623
L 354.25961 -114.331805
L 355.276189 -114.089122
L 356.292767 -113.875546
L 357.309346 -113.691036
L 358.325925 -113.535543
L 359.342503 -113.409007
L 360.359082 -113.311357
L 361.37566 -113.242513
L 362.392239 -113.202385
L 363.408818 -113.190872
L 364.425396 -113.207864
L 365.441975 -113.25324
L 366.458553 -113.326872
L 367.475132 -113.428619
L 368.491711 -113.558332
L 369.508289 -113.715853
L 370.524868 -113.901013
L 371.541447 -114.113636
L 372.558025 -114.353535
L 373.574604 -114.620515
L 374.591182 -114.914371
L 375.607761 -115.23489
L 376.62434 -115.58185
L 377.640918 -115.95502
L 378.657497 -116.354162
L 379.674075 -116.779026
L 380.690654 -117.229358
L 381.707233 -117.704894
L 382.723811 -118.205361
L 383.74039 -118.73048
L 384.756968 -119.279964
L 385.773547 -119.853515
L 386.790126 -120.450833
L 387.806704 -121.071607
L 388.823283 -121.715519
L 389.839862 -122.382245
L 390.85644 -123.071455
L 391.873019 -123.782809
L 392.889597 -124.515963
L 393.906176 -125.270566
L 394.922755 -126.046261
L 395.939333 -126.842684
L 396.955912 -127.659465
L 397.97249 -128.496229
L 398.989069 -129.352595
L 400.005648 -130.228175
L 401.022226 -131.122578
L 402.038805 -132.035407
L 403.055383 -132.966259
L 404.071962 -133.914727
L 405.088541 -134.8804
L 406.105119 -135.862859
L 407.121698 -136.861686
L 408.138277 -137.876454
L 409.154855 -138.906735
L 410.171434 -139.952095
L 411.188012 -141.012099
L 412.204591 -142.086305
L 413.22117 -143.17427
L 414.237748 -144.275548
L 415.254327 -145.389689
L 416.270905 -146.51624
L 417.287484 -147.654746
L 418.304063 -148.804749
L 419.320641 -149.96579
L 420.33722 -151.137406
L 421.353799 -152.319133
L 422.370377 -153.510505
L 423.386956 -154.711054
L 424.403534 -155.920313
L 425.420113 -157.13781
L 426.436692 -158.363075
L 427.45327 -159.595634
L 428.469849 -160.835016
L 429.486427 -162.080746
L 430.503006 -163.332352
L 431.519585 -164.589358
L 432.536163 -165.851291
L 433.552742 -167.117676
L 434.56932 -168.38804
L 435.585899 -169.66191
L 436.602478 -170.938813
L 437.619056 -172.218277
L 438.635635 -173.499831
L 439.652214 -174.783005
L 440.668792 -176.067332
L 441.685371 -177.352344
L 442.701949 -178.637576
L 443.718528 -179.922563
L 444.735107 -181.206846
L 445.751685 -182.489963
L 446.768264 -183.771458
L 447.784842 -185.050876
L 448.801421 -186.327764
L 449.818 -187.601673
L 450.834578 -188.872156
L 451.851157 -190.13877
L 452.867735 -191.401074
L 453.884314 -192.658631
L 454.900893 -193.911007
L 455.917471 -195.157772
L 456.93405 -196.398499
L 457.950629 -197.632767
L 458.967207 -198.860155
L 459.983786 -200.080251
L 461.000364 -201.292644
L 462.016943 -202.496928
L 463.033522 -203.692703
L 464.0501 -204.879571
L 465.066679 -206.057141
L 466.083257 -207.225027
L 467.099836 -208.382846
L 468.116415 -209.530223
L 469.132993 -210.666785
L 470.149572 -211.792167
L 471.16615 -212.906008
L 472.182729 -214.007954
L 473.199308 -215.097656
L 474.215886 -216.174769
L 475.232465 -217.238958
L 476.249044 -218.289889
L 477.265622 -219.327239
L 478.282201 -220.350687
L 479.298779 -221.359921
L 480.315358 -222.354635
L 481.331937 -223.334528
L 482.348515 -224.299307
L 483.365094 -225.248685
L 484.381672 -226.182382
L 485.398251 -227.100125
L 486.41483 -228.001646
L 487.431408 -228.886687
L 488.447987 -229.754994
L 489.464565 -230.606322
L 490.481144 -231.440432
L 491.497723 -232.257093
L 492.514301 -233.056081
L 493.53088 -233.837178
L 494.547459 -234.600175
L 495.564037 -235.344871
L 496.580616 -236.071069
L 497.597194 -236.778582
L 498.613773 -237.467231
L 499.630352 -238.136842
L 500.64693 -238.787252
L 501.663509 -239.418302
L 502.680087 -240.029844
L 503.696666 -240.621734
L 504.713245 -241.193838
L 505.729823 -241.74603
L 506.746402 -242.278191
L 507.762981 -242.790208
L 508.779559 -243.281978
L 509.796138 -243.753406
L 510.812716 -244.204402
L 511.829295 -244.634886
L 512.845874 -245.044785
L 513.862452 -245.434034
L 514.879031 -245.802576
L 515.895609 -246.15036
L 516.912188 -246.477345
L 517.928767 -246.783495
L 518.945345 -247.068784
L 519.961924 -247.333193
L 520.978502 -247.57671
L 521.995081 -247.799331
L 523.01166 -248.00106
L 524.028238 -248.181906
L 525.044817 -248.341889
L 526.061396 -248.481035
L 527.077974 -248.599377
L 528.094553 -248.696955
L 529.111131 -248.773818
L 530.12771 -248.83002
L 531.144289 -248.865624
L 532.160867 -248.880699
L 533.177446 -248.875323
L 534.194024 -248.849579
L 535.210603 -248.803557
L 536.227182 -248.737356
L 537.24376 -248.65108
L 538.260339 -248.54484
L 539.276917 -248.418754
L 540.293496 -248.272948
L 541.310075 -248.107552
L 542.326653 -247.922705
L 543.343232 -247.71855
L 544.359811 -247.495239
L 545.376389 -247.252929
L 546.392968 -246.991782
L 547.409546 -246.711968
L 548.426125 -246.413663
L 549.442704 -246.097048
L 550.459282 -245.762311
L 551.475861 -245.409643
L 552.492439 -245.039244
L 553.509018 -244.651318
L 554.525597 -244.246075
L 555.542175 -243.82373
L 556.558754 -243.384504
L 557.575332 -242.928621
L 558.591911 -242.456314
L 559.60849 -241.967817
L 560.625068 -241.463371
L 561.641647 -240.943223
L 562.658226 -240.40762
L 563.674804 -239.85682
L 564.691383 -239.291079
L 565.707961 -238.710663
L 566.72454 -238.115838
L 567.741119 -237.506876
L 568.757697 -236.884054
L 569.774276 -236.24765
L 570.790854 -235.597948
L 571.807433 -234.935236
L 572.824012 -234.259804
L 573.84059 -233.571946
L 574.857169 -232.871959
L 575.873747 -232.160144
L 576.890326 -231.436804
L 577.906905 -230.702246
L 578.923483 -229.95678
L 579.940062 -229.200717
L 580.956641 -228.434372
L 581.973219 -227.658061
L 582.989798 -226.872105
L 584.006376 -226.076824
L 585.022955 -225.272543
L 586.039534 -224.459587
L 587.056112 -223.638283
L 588.072691 -222.808961
L 589.089269 -221.97195
L 590.105848 -221.127584
L 591.122427 -220.276195
L 592.139005 -219.418118
L 593.155584 -218.553689
L 594.172163 -217.683245
L 595.188741 -216.807122
L 596.20532 -215.925659
L 597.221898 -215.039195
L 598.238477 -214.148069
L 599.255056 -213.25262
L 600.271634 -212.353188
L 601.288213 -211.450113
L 602.304791 -210.543734
L 603.32137 -209.63439
L 604.337949 -208.722423
L 605.354527 -207.808169
L 606.371106 -206.891967
L 607.387684 -205.974155
L 608.404263 -205.05507
L 609.420842 -204.135047
L 610.43742 -203.214423
L 611.453999 -202.293529
L 612.470578 -201.3727
L 613.487156 -200.452267
L 614.503735 -199.532558
L 615.520313 -198.613903
L 616.536892 -197.696628
L 617.553471 -196.781058
L 618.570049 -195.867515
L 619.586628 -194.95632
L 620.603206 -194.047792
L 621.619785 -193.142247
L 622.636364 -192.24
L 622.636364 -62.64
L 622.636364 -62.64
L 621.619785 -62.64
L 620.603206 -62.64
L 619.586628 -62.64
L 618.570049 -62.64
L 617.553471 -62.64
L 616.536892 -62.64
L 615.520313 -62.64
L 614.503735 -62.64
L 613.487156 -62.64
L 612.470578 -62.64
L 611.453999 -62.64
L 610.43742 -62.64
L 609.420842 -62.64
L 608.404263 -62.64
L 607.387684 -62.64
L 606.371106 -62.64
L 605.354527 -62.64
L 604.337949 -62.64
L 603.32137 -62.64
L 602.304791 -62.64
L 601.288213 -62.64
L 600.271634 -62.64
L 599.255056 -62.64
L 598.238477 -62.64
L 597.221898 -62.64
L 596.20532 -62.64
L 595.188741 -62.64
L 594.172163 -62.64
L 593.155584 -62.64
L 592.139005 -62.64
L 591.122427 -62.64
L 590.105848 -62.64
L 589.089269 -62.64
L 588.072691 -62.64
L 587.056112 -62.64
L 586.039534 -62.64
L 585.022955 -62.64
L 584.006376 -62.64
L 582.989798 -62.64
L 581.973219 -62.64
L 580.956641 -62.64
L 579.940062 -62.64
L 578.923483 -62.64
L 577.906905 -62.64
L 576.890326 -62.64
L 575.873747 -62.64
L 574.857169 -62.64
L 573.84059 -62.64
L 572.824012 -62.64
L 571.807433 -62.64
L 570.790854 -62.64
L 569.774276 -62.64
L 568.757697 -62.64
L 567.741119 -62.64
L 566.72454 -62.64
L 565.707961 -62.64
L 564.691383 -62.64
L 563.674804 -62.64
L 562.658226 -62.64
L 561.641647 -62.64
L 560.625068 -62.64
L 559.60849 -62.64
L 558.591911 -62.64
L 557.575332 -62.64
L 556.558754 -62.64
L 555.542175 -62.64
L 554.525597 -62.64
L 553.509018 -62.64
L 552.492439 -62.64
L 551.475861 -62.64
L 550.459282 -62.64
L 549.442704 -62.64
L 548.426125 -62.64
L 547.409546 -62.64
L 546.392968 -62.64
L 545.376389 -62.64
L 544.359811 -62.64
L 543.343232 -62.64
L 542.326653 -62.64
L 541.310075 -62.64
L 540.293496 -62.64
L 539.276917 -62.64
L 538.260339 -62.64
L 537.24376 -62.64
L 536.227182 -62.64
L 535.210603 -62.64
L 534.194024 -62.64
L 533.177446 -62.64
L 532.160867 -62.64
L 531.144289 -62.64
L 530.12771 -62.64
L 529.111131 -62.64
L 528.094553 -62.64
L 527.077974 -62.64
L 526.061396 -62.64
L 525.044817 -62.64
L 524.028238 -62.64
L 523.01166 -62.64
L 521.995081 -62.64
L 520.978502 -62.64
L 519.961924 -62.64
L 518.945345 -62.64
L 517.928767 -62.64
L 516.912188 -62.64
L 515.895609 -62.64
L 514.879031 -62.64
L 513.862452 -62.64
L 512.845874 -62.64
L 511.829295 -62.64
L 510.812716 -62.64
L 509.796138 -62.64
L 508.779559 -62.64
L 507.762981 -62.64
L 506.746402 -62.64
L 505.729823 -62.64
L 504.713245 -62.64
L 503.696666 -62.64
L 502.680087 -62.64
L 501.663509 -62.64
L 500.64693 -62.64
L 499.630352 -62.64
L 498.613773 -62.64
L 497.597194 -62.64
L 496.580616 -62.64
L 495.564037 -62.64
L 494.547459 -62.64
L 493.53088 -62.64
L 492.514301 -62.64
L 491.497723 -62.64
L 490.481144 -62.64
L 489.464565 -62.64
L 488.447987 -62.64
L 487.431408 -62.64
L 486.41483 -62.64
L 485.398251 -62.64
L 484.381672 -62.64
L 483.365094 -62.64
L 482.348515 -62.64
L 481.331937 -62.64
L 480.315358 -62.64
L 479.298779 -62.64
L 478.282201 -62.64
L 477.265622 -62.64
L 476.249044 -62.64
L 475.232465 -62.64
L 474.215886 -62.64
L 473.199308 -62.64
L 472.182729 -62.64
L 471.16615 -62.64
L 470.149572 -62.64
L 469.132993 -62.64
L 468.116415 -62.64
L 467.099836 -62.64
L 466.083257 -62.64
L 465.066679 -62.64
L 464.0501 -62.64
L 463.033522 -62.64
L 462.016943 -62.64
L 461.000364 -62.64
L 459.983786 -62.64
L 458.967207 -62.64
L 457.950629 -62.64
L 456.93405 -62.64
L 455.917471 -62.64
L 454.900893 -62.64
L 453.884314 -62.64
L 452.867735 -62.64
L 451.851157 -62.64
L 450.834578 -62.64
L 449.818 -62.64
L 448.801421 -62.64
L 447.784842 -62.64
L 446.768264 -62.64
L 445.751685 -62.64
L 444.735107 -62.64
L 443.718528 -62.64
L 442.701949 -62.64
L 441.685371 -62.64
L 440.668792 -62.64
L 439.652214 -62.64
L 438.635635 -62.64
L 437.619056 -62.64
L 436.602478 -62.64
L 435.585899 -62.64
L 434.56932 -62.64
L 433.552742 -62.64
L 432.536163 -62.64
L 431.519585 -62.64
L 430.503006 -62.64
L 429.486427 -62.64
L 428.469849 -62.64
L 427.45327 -62.64
L 426.436692 -62.64
L 425.420113 -62.64
L 424.403534 -62.64
L 423.386956 -62.64
L 422.370377 -62.64
L 421.353799 -62.64
L 420.33722 -62.64
L 419.320641 -62.64
L 418.304063 -62.64
L 417.287484 -62.64
L 416.270905 -62.64
L 415.254327 -62.64
L 414.237748 -62.64
L 413.22117 -62.64
L 412.204591 -62.64
L 411.188012 -62.64
L 410.171434 -62.64
L 409.154855 -62.64
L 408.138277 -62.64
L 407.121698 -62.64
L 406.105119 -62.64
L 405.088541 -62.64
L 404.071962 -62.64
L 403.055383 -62.64
L 402.038805 -62.64
L 401.022226 -62.64
L 400.005648 -62.64
L 398.989069 -62.64
L 397.97249 -62.64
L 396.955912 -62.64
L 395.939333 -62.64
L 394.922755 -62.64
L 393.906176 -62.64
L 392.889597 -62.64
L 391.873019 -62.64
L 390.85644 -62.64
L 389.839862 -62.64
L 388.823283 -62.64
L 387.806704 -62.64
L 386.790126 -62.64
L 385.773547 -62.64
L 384.756968 -62.64
L 383.74039 -62.64
L 382.723811 -62.64
L 381.707233 -62.64
L 380.690654 -62.64
L 379.674075 -62.64
L 378.657497 -62.64
L 377.640918 -62.64
L 376.62434 -62.64
L 375.607761 -62.64
L 374.591182 -62.64
L 373.574604 -62.64
L 372.558025 -62.64
L 371.541447 -62.64
L 370.524868 -62.64
L 369.508289 -62.64
L 368.491711 -62.64
L 367.475132 -62.64
L 366.458553 -62.64
L 365.441975 -62.64
L 364.425396 -62.64
L 363.408818 -62.64
L 362.392239 -62.64
L 361.37566 -62.64
L 360.359082 -62.64
L 359.342503 -62.64
L 358.325925 -62.64
L 357.309346 -62.64
L 356.292767 -62.64
L 355.276189 -62.64
L 354.25961 -62.64
L 353.243032 -62.64
L 352.226453 -62.64
L 351.209874 -62.64
L 350.193296 -62.64
L 349.176717 -62.64
L 348.160138 -62.64
L 347.14356 -62.64
L 346.126981 -62.64
L 345.110403 -62.64
L 344.093824 -62.64
L 343.077245 -62.64
L 342.060667 -62.64
L 341.044088 -62.64
L 340.02751 -62.64
L 339.010931 -62.64
L 337.994352 -62.64
L 336.977774 -62.64
L 335.961195 -62.64
L 334.944617 -62.64
L 333.928038 -62.64
L 332.911459 -62.64
L 331.894881 -62.64
L 330.878302 -62.64
L 329.861723 -62.64
L 328.845145 -62.64
L 327.828566 -62.64
L 326.811988 -62.64
L 325.795409 -62.64
L 324.77883 -62.64
L 323.762252 -62.64
L 322.745673 -62.64
L 321.729095 -62.64
L 320.712516 -62.64
L 319.695937 -62.64
L 318.679359 -62.64
L 317.66278 -62.64
L 316.646201 -62.64
L 315.629623 -62.64
L 314.613044 -62.64
L 313.596466 -62.64
L 312.579887 -62.64
L 311.563308 -62.64
L 310.54673 -62.64
L 309.530151 -62.64
L 308.513573 -62.64
L 307.496994 -62.64
L 306.480415 -62.64
L 305.463837 -62.64
L 304.447258 -62.64
L 303.43068 -62.64
L 302.414101 -62.64
L 301.397522 -62.64
L 300.380944 -62.64
L 299.364365 -62.64
L 298.347786 -62.64
L 297.331208 -62.64
L 296.314629 -62.64
L 295.298051 -62.64
L 294.281472 -62.64
L 293.264893 -62.64
L 292.248315 -62.64
L 291.231736 -62.64
L 290.215158 -62.64
L 289.198579 -62.64
L 288.182 -62.64
L 287.165422 -62.64
L 286.148843 -62.64
L 285.132265 -62.64
L 284.115686 -62.64
L 283.099107 -62.64
L 282.082529 -62.64
L 281.06595 -62.64
L 280.049371 -62.64
L 279.032793 -62.64
L 278.016214 -62.64
L 276.999636 -62.64
L 275.983057 -62.64
L 274.966478 -62.64
L 273.9499 -62.64
L 272.933321 -62.64
L 271.916743 -62.64
L 270.900164 -62.64
L 269.883585 -62.64
L 268.867007 -62.64
L 267.850428 -62.64
L 266.83385 -62.64
L 265.817271 -62.64
L 264.800692 -62.64
L 263.784114 -62.64
L 262.767535 -62.64
L 261.750956 -62.64
L 260.734378 -62.64
L 259.717799 -62.64
L 258.701221 -62.64
L 257.684642 -62.64
L 256.668063 -62.64
L 255.651485 -62.64
L 254.634906 -62.64
L 253.618328 -62.64
L 252.601749 -62.64
L 251.58517 -62.64
L 250.568592 -62.64
L 249.552013 -62.64
L 248.535435 -62.64
L 247.518856 -62.64
L 246.502277 -62.64
L 245.485699 -62.64
L 244.46912 -62.64
L 243.452541 -62.64
L 242.435963 -62.64
L 241.419384 -62.64
L 240.402806 -62.64
L 239.386227 -62.64
L 238.369648 -62.64
L 237.35307 -62.64
L 236.336491 -62.64
L 235.319913 -62.64
L 234.303334 -62.64
L 233.286755 -62.64
L 232.270177 -62.64
L 231.253598 -62.64
L 230.237019 -62.64
L 229.220441 -62.64
L 228.203862 -62.64
L 227.187284 -62.64
L 226.170705 -62.64
L 225.154126 -62.64
L 224.137548 -62.64
L 223.120969 -62.64
L 222.104391 -62.64
L 221.087812 -62.64
L 220.071233 -62.64
L 219.054655 -62.64
L 218.038076 -62.64
L 217.021498 -62.64
L 216.004919 -62.64
L 214.98834 -62.64
L 213.971762 -62.64
L 212.955183 -62.64
L 211.938604 -62.64
L 210.922026 -62.64
L 209.905447 -62.64
L 208.888869 -62.64
L 207.87229 -62.64
L 206.855711 -62.64
L 205.839133 -62.64
L 204.822554 -62.64
L 203.805976 -62.64
L 202.789397 -62.64
L 201.772818 -62.64
L 200.75624 -62.64
L 199.739661 -62.64
L 198.723083 -62.64
L 197.706504 -62.64
L 196.689925 -62.64
L 195.673347 -62.64
L 194.656768 -62.64
L 193.640189 -62.64
L 192.623611 -62.64
L 191.607032 -62.64
L 190.590454 -62.64
L 189.573875 -62.64
L 188.557296 -62.64
L 187.540718 -62.64
L 186.524139 -62.64
L 185.507561 -62.64
L 184.490982 -62.64
L 183.474403 -62.64
L 182.457825 -62.64
L 181.441246 -62.64
L 180.424668 -62.64
L 179.408089 -62.64
L 178.39151 -62.64
L 177.374932 -62.64
L 176.358353 -62.64
L 175.341774 -62.64
L 174.325196 -62.64
L 173.308617 -62.64
L 172.292039 -62.64
L 171.27546 -62.64
L 170.258881 -62.64
L 169.242303 -62.64
L 168.225724 -62.64
L 167.209146 -62.64
L 166.192567 -62.64
L 165.175988 -62.64
L 164.15941 -62.64
L 163.142831 -62.64
L 162.126253 -62.64
L 161.109674 -62.64
L 160.093095 -62.64
L 159.076517 -62.64
L 158.059938 -62.64
L 157.043359 -62.64
L 156.026781 -62.64
L 155.010202 -62.64
L 153.993624 -62.64
L 152.977045 -62.64
L 151.960466 -62.64
L 150.943888 -62.64
L 149.927309 -62.64
L 148.910731 -62.64
L 147.894152 -62.64
L 146.877573 -62.64
L 145.860995 -62.64
L 144.844416 -62.64
L 143.827837 -62.64
L 142.811259 -62.64
L 141.79468 -62.64
L 140.778102 -62.64
L 139.761523 -62.64
L 138.744944 -62.64
L 137.728366 -62.64
L 136.711787 -62.64
L 135.695209 -62.64
L 134.67863 -62.64
L 133.662051 -62.64
L 132.645473 -62.64
L 131.628894 -62.64
L 130.612316 -62.64
L 129.595737 -62.64
L 128.579158 -62.64
L 127.56258 -62.64
L 126.546001 -62.64
L 125.529422 -62.64
L 124.512844 -62.64
L 123.496265 -62.64
L 122.479687 -62.64
L 121.463108 -62.64
L 120.446529 -62.64
L 119.429951 -62.64
L 118.413372 -62.64
L 117.396794 -62.64
L 116.380215 -62.64
L 115.363636 -62.64
z
" style="stroke: #228b22"/>
                </defs>
                <g clip-path="url(#p4a5f3e1a51)">
                    <use xlink:href="#m27e4d4dcfe" x="0" y="432" style="fill: #228b22; stroke: #228b22"/>
                </g>
            </g>
            <g id="PolyCollection_2">
                <defs>
                    <path id="md1cb01b7ba" d="M 115.363636 -62.64
L 115.363636 -105.84
L 116.380215 -107.061376
L 117.396794 -108.277427
L 118.413372 -109.487736
L 119.429951 -110.691891
L 120.446529 -111.889483
L 121.463108 -113.080106
L 122.479687 -114.26336
L 123.496265 -115.438848
L 124.512844 -116.606179
L 125.529422 -117.764965
L 126.546001 -118.914822
L 127.56258 -120.055373
L 128.579158 -121.186244
L 129.595737 -122.307066
L 130.612316 -123.417477
L 131.628894 -124.517118
L 132.645473 -125.605636
L 133.662051 -126.682685
L 134.67863 -127.747921
L 135.695209 -128.80101
L 136.711787 -129.84162
L 137.728366 -130.869426
L 138.744944 -131.884111
L 139.761523 -132.88536
L 140.778102 -133.872867
L 141.79468 -134.846333
L 142.811259 -135.805462
L 143.827837 -136.749966
L 144.844416 -137.679564
L 145.860995 -138.593981
L 146.877573 -139.492949
L 147.894152 -140.376205
L 148.910731 -141.243494
L 149.927309 -142.094569
L 150.943888 -142.929187
L 151.960466 -143.747114
L 152.977045 -144.548123
L 153.993624 -145.331991
L 155.010202 -146.098507
L 156.026781 -146.847463
L 157.043359 -147.57866
L 158.059938 -148.291905
L 159.076517 -148.987014
L 160.093095 -149.663809
L 161.109674 -150.32212
L 162.126253 -150.961784
L 163.142831 -151.582644
L 164.15941 -152.184553
L 165.175988 -152.767369
L 166.192567 -153.33096
L 167.209146 -153.875198
L 168.225724 -154.399967
L 169.242303 -154.905154
L 170.258881 -155.390656
L 171.27546 -155.856378
L 172.292039 -156.302229
L 173.308617 -156.728131
L 174.325196 -157.134008
L 175.341774 -157.519795
L 176.358353 -157.885433
L 177.374932 -158.230872
L 178.39151 -158.556068
L 179.408089 -158.860984
L 180.424668 -159.145592
L 181.441246 -159.409871
L 182.457825 -159.653807
L 183.474403 -159.877394
L 184.490982 -160.080632
L 185.507561 -160.263529
L 186.524139 -160.426102
L 187.540718 -160.568372
L 188.557296 -160.690371
L 189.573875 -160.792135
L 190.590454 -160.873708
L 191.607032 -160.935141
L 192.623611 -160.976494
L 193.640189 -160.997832
L 194.656768 -160.999227
L 195.673347 -160.980757
L 196.689925 -160.942511
L 197.706504 -160.884579
L 198.723083 -160.807063
L 199.739661 -160.710068
L 200.75624 -160.593706
L 201.772818 -160.458098
L 202.789397 -160.303369
L 203.805976 -160.129652
L 204.822554 -159.937084
L 205.839133 -159.72581
L 206.855711 -159.495982
L 207.87229 -159.247757
L 208.888869 -158.981297
L 209.905447 -158.696771
L 210.922026 -158.394354
L 211.938604 -158.074226
L 212.955183 -157.736574
L 213.971762 -157.381588
L 214.98834 -157.009467
L 216.004919 -156.620413
L 217.021498 -156.214633
L 218.038076 -155.792341
L 219.054655 -155.353755
L 220.071233 -154.899097
L 221.087812 -154.428595
L 222.104391 -153.942483
L 223.120969 -153.440998
L 224.137548 -152.924382
L 225.154126 -152.392882
L 226.170705 -151.846747
L 227.187284 -151.286234
L 228.203862 -150.711602
L 229.220441 -150.123114
L 230.237019 -149.521037
L 231.253598 -148.905642
L 232.270177 -148.277205
L 233.286755 -147.636004
L 234.303334 -146.982321
L 235.319913 -146.31644
L 236.336491 -145.638651
L 237.35307 -144.949244
L 238.369648 -144.248516
L 239.386227 -143.536763
L 240.402806 -142.814285
L 241.419384 -142.081386
L 242.435963 -141.338371
L 243.452541 -140.585548
L 244.46912 -139.823228
L 245.485699 -139.051723
L 246.502277 -138.271347
L 247.518856 -137.482416
L 248.535435 -136.68525
L 249.552013 -135.880167
L 250.568592 -135.06749
L 251.58517 -134.247541
L 252.601749 -133.420645
L 253.618328 -132.587128
L 254.634906 -131.747314
L 255.651485 -130.901533
L 256.668063 -130.050113
L 257.684642 -129.193382
L 258.701221 -128.331671
L 259.717799 -127.465309
L 260.734378 -126.594628
L 261.750956 -125.719957
L 262.767535 -124.841627
L 263.784114 -123.95997
L 264.800692 -123.075317
L 265.817271 -122.187997
L 266.83385 -121.29834
L 267.850428 -120.406677
L 268.867007 -119.513337
L 269.883585 -118.618647
L 270.900164 -117.722935
L 271.916743 -116.826529
L 272.933321 -115.929752
L 273.9499 -115.032931
L 274.966478 -114.136387
L 275.983057 -113.240442
L 276.999636 -112.345417
L 278.016214 -111.451629
L 279.032793 -110.559397
L 280.049371 -109.669035
L 281.06595 -108.780855
L 282.082529 -107.89517
L 283.099107 -107.012287
L 284.115686 -106.132514
L 285.132265 -105.256155
L 286.148843 -104.383511
L 287.165422 -103.514882
L 288.182 -102.650565
L 289.198579 -101.790853
L 290.215158 -100.936038
L 291.231736 -100.086408
L 292.248315 -99.242247
L 293.264893 -98.403839
L 294.281472 -97.571461
L 295.298051 -96.745389
L 296.314629 -95.925896
L 297.331208 -95.11325
L 298.347786 -94.307717
L 299.364365 -93.509557
L 300.380944 -92.719029
L 301.397522 -91.936387
L 302.414101 -91.161882
L 303.43068 -90.395758
L 304.447258 -89.638259
L 305.463837 -88.889623
L 306.480415 -88.150084
L 307.496994 -87.419872
L 308.513573 -86.699212
L 309.530151 -85.988325
L 310.54673 -85.287429
L 311.563308 -84.596736
L 312.579887 -83.916454
L 313.596466 -83.246785
L 314.613044 -82.587929
L 315.629623 -81.94008
L 316.646201 -81.303426
L 317.66278 -80.678152
L 318.679359 -80.064438
L 319.695937 -79.462459
L 320.712516 -78.872383
L 321.729095 -78.294377
L 322.745673 -77.7286
L 323.762252 -77.175206
L 324.77883 -76.634346
L 325.795409 -76.106163
L 326.811988 -75.590798
L 327.828566 -75.088384
L 328.845145 -74.599051
L 329.861723 -74.122923
L 330.878302 -73.660117
L 331.894881 -73.210748
L 332.911459 -72.774924
L 333.928038 -72.352747
L 334.944617 -71.944314
L 335.961195 -71.549718
L 336.977774 -71.169046
L 337.994352 -70.802378
L 339.010931 -70.449791
L 340.02751 -70.111355
L 341.044088 -69.787136
L 342.060667 -69.477193
L 343.077245 -69.181581
L 344.093824 -68.900349
L 345.110403 -68.633541
L 346.126981 -68.381195
L 347.14356 -68.143344
L 348.160138 -67.920016
L 349.176717 -67.711233
L 350.193296 -67.517012
L 351.209874 -67.337365
L 352.226453 -67.172298
L 353.243032 -67.021811
L 354.25961 -66.885902
L 355.276189 -66.764561
L 356.292767 -66.657773
L 357.309346 -66.565518
L 358.325925 -66.487771
L 359.342503 -66.424503
L 360.359082 -66.375678
L 361.37566 -66.341256
L 362.392239 -66.321192
L 363.408818 -66.315436
L 364.425396 -66.323932
L 365.441975 -66.34662
L 366.458553 -66.383436
L 367.475132 -66.434309
L 368.491711 -66.499166
L 369.508289 -66.577926
L 370.524868 -66.670507
L 371.541447 -66.776818
L 372.558025 -66.896768
L 373.574604 -67.030258
L 374.591182 -67.177186
L 375.607761 -67.337445
L 376.62434 -67.510925
L 377.640918 -67.69751
L 378.657497 -67.897081
L 379.674075 -68.109513
L 380.690654 -68.334679
L 381.707233 -68.572447
L 382.723811 -68.822681
L 383.74039 -69.08524
L 384.756968 -69.359982
L 385.773547 -69.646758
L 386.790126 -69.945417
L 387.806704 -70.255803
L 388.823283 -70.577759
L 389.839862 -70.911123
L 390.85644 -71.255727
L 391.873019 -71.611404
L 392.889597 -71.977981
L 393.906176 -72.355283
L 394.922755 -72.743131
L 395.939333 -73.141342
L 396.955912 -73.549733
L 397.97249 -73.968115
L 398.989069 -74.396297
L 400.005648 -74.834088
L 401.022226 -75.281289
L 402.038805 -75.737704
L 403.055383 -76.20313
L 404.071962 -76.677364
L 405.088541 -77.1602
L 406.105119 -77.65143
L 407.121698 -78.150843
L 408.138277 -78.658227
L 409.154855 -79.173367
L 410.171434 -79.696048
L 411.188012 -80.226049
L 412.204591 -80.763152
L 413.22117 -81.307135
L 414.237748 -81.857774
L 415.254327 -82.414845
L 416.270905 -82.97812
L 417.287484 -83.547373
L 418.304063 -84.122375
L 419.320641 -84.702895
L 420.33722 -85.288703
L 421.353799 -85.879566
L 422.370377 -86.475252
L 423.386956 -87.075527
L 424.403534 -87.680156
L 425.420113 -88.288905
L 426.436692 -88.901537
L 427.45327 -89.517817
L 428.469849 -90.137508
L 429.486427 -90.760373
L 430.503006 -91.386176
L 431.519585 -92.014679
L 432.536163 -92.645645
L 433.552742 -93.278838
L 434.56932 -93.91402
L 435.585899 -94.550955
L 436.602478 -95.189406
L 437.619056 -95.829138
L 438.635635 -96.469915
L 439.652214 -97.111503
L 440.668792 -97.753666
L 441.685371 -98.396172
L 442.701949 -99.038788
L 443.718528 -99.681282
L 444.735107 -100.323423
L 445.751685 -100.964981
L 446.768264 -101.605729
L 447.784842 -102.245438
L 448.801421 -102.883882
L 449.818 -103.520837
L 450.834578 -104.156078
L 451.851157 -104.789385
L 452.867735 -105.420537
L 453.884314 -106.049316
L 454.900893 -106.675504
L 455.917471 -107.298886
L 456.93405 -107.91925
L 457.950629 -108.536383
L 458.967207 -109.150078
L 459.983786 -109.760126
L 461.000364 -110.366322
L 462.016943 -110.968464
L 463.033522 -111.566351
L 464.0501 -112.159786
L 465.066679 -112.748571
L 466.083257 -113.332514
L 467.099836 -113.911423
L 468.116415 -114.485111
L 469.132993 -115.053392
L 470.149572 -115.616083
L 471.16615 -116.173004
L 472.182729 -116.723977
L 473.199308 -117.268828
L 474.215886 -117.807385
L 475.232465 -118.339479
L 476.249044 -118.864945
L 477.265622 -119.383619
L 478.282201 -119.895343
L 479.298779 -120.399961
L 480.315358 -120.897317
L 481.331937 -121.387264
L 482.348515 -121.869654
L 483.365094 -122.344343
L 484.381672 -122.811191
L 485.398251 -123.270062
L 486.41483 -123.720823
L 487.431408 -124.163343
L 488.447987 -124.597497
L 489.464565 -125.023161
L 490.481144 -125.440216
L 491.497723 -125.848547
L 492.514301 -126.24804
L 493.53088 -126.638589
L 494.547459 -127.020088
L 495.564037 -127.392435
L 496.580616 -127.755534
L 497.597194 -128.109291
L 498.613773 -128.453615
L 499.630352 -128.788421
L 500.64693 -129.113626
L 501.663509 -129.429151
L 502.680087 -129.734922
L 503.696666 -130.030867
L 504.713245 -130.316919
L 505.729823 -130.593015
L 506.746402 -130.859095
L 507.762981 -131.115104
L 508.779559 -131.360989
L 509.796138 -131.596703
L 510.812716 -131.822201
L 511.829295 -132.037443
L 512.845874 -132.242393
L 513.862452 -132.437017
L 514.879031 -132.621288
L 515.895609 -132.79518
L 516.912188 -132.958672
L 517.928767 -133.111748
L 518.945345 -133.254392
L 519.961924 -133.386597
L 520.978502 -133.508355
L 521.995081 -133.619666
L 523.01166 -133.72053
L 524.028238 -133.810953
L 525.044817 -133.890945
L 526.061396 -133.960518
L 527.077974 -134.019688
L 528.094553 -134.068478
L 529.111131 -134.106909
L 530.12771 -134.13501
L 531.144289 -134.152812
L 532.160867 -134.16035
L 533.177446 -134.157661
L 534.194024 -134.144789
L 535.210603 -134.121779
L 536.227182 -134.088678
L 537.24376 -134.04554
L 538.260339 -133.99242
L 539.276917 -133.929377
L 540.293496 -133.856474
L 541.310075 -133.773776
L 542.326653 -133.681352
L 543.343232 -133.579275
L 544.359811 -133.46762
L 545.376389 -133.346464
L 546.392968 -133.215891
L 547.409546 -133.075984
L 548.426125 -132.926832
L 549.442704 -132.768524
L 550.459282 -132.601155
L 551.475861 -132.424821
L 552.492439 -132.239622
L 553.509018 -132.045659
L 554.525597 -131.843037
L 555.542175 -131.631865
L 556.558754 -131.412252
L 557.575332 -131.184311
L 558.591911 -130.948157
L 559.60849 -130.703908
L 560.625068 -130.451686
L 561.641647 -130.191611
L 562.658226 -129.92381
L 563.674804 -129.64841
L 564.691383 -129.36554
L 565.707961 -129.075331
L 566.72454 -128.777919
L 567.741119 -128.473438
L 568.757697 -128.162027
L 569.774276 -127.843825
L 570.790854 -127.518974
L 571.807433 -127.187618
L 572.824012 -126.849902
L 573.84059 -126.505973
L 574.857169 -126.155979
L 575.873747 -125.800072
L 576.890326 -125.438402
L 577.906905 -125.071123
L 578.923483 -124.69839
L 579.940062 -124.320358
L 580.956641 -123.937186
L 581.973219 -123.549031
L 582.989798 -123.156052
L 584.006376 -122.758412
L 585.022955 -122.356272
L 586.039534 -121.949794
L 587.056112 -121.539142
L 588.072691 -121.12448
L 589.089269 -120.705975
L 590.105848 -120.283792
L 591.122427 -119.858098
L 592.139005 -119.429059
L 593.155584 -118.996845
L 594.172163 -118.561622
L 595.188741 -118.123561
L 596.20532 -117.68283
L 597.221898 -117.239598
L 598.238477 -116.794034
L 599.255056 -116.34631
L 600.271634 -115.896594
L 601.288213 -115.445056
L 602.304791 -114.991867
L 603.32137 -114.537195
L 604.337949 -114.081211
L 605.354527 -113.624084
L 606.371106 -113.165983
L 607.387684 -112.707077
L 608.404263 -112.247535
L 609.420842 -111.787524
L 610.43742 -111.327211
L 611.453999 -110.866765
L 612.470578 -110.40635
L 613.487156 -109.946133
L 614.503735 -109.486279
L 615.520313 -109.026952
L 616.536892 -108.568314
L 617.553471 -108.110529
L 618.570049 -107.653757
L 619.586628 -107.19816
L 620.603206 -106.743896
L 621.619785 -106.291124
L 622.636364 -105.84
L 622.636364 -62.64
L 622.636364 -62.64
L 621.619785 -62.64
L 620.603206 -62.64
L 619.586628 -62.64
L 618.570049 -62.64
L 617.553471 -62.64
L 616.536892 -62.64
L 615.520313 -62.64
L 614.503735 -62.64
L 613.487156 -62.64
L 612.470578 -62.64
L 611.453999 -62.64
L 610.43742 -62.64
L 609.420842 -62.64
L 608.404263 -62.64
L 607.387684 -62.64
L 606.371106 -62.64
L 605.354527 -62.64
L 604.337949 -62.64
L 603.32137 -62.64
L 602.304791 -62.64
L 601.288213 -62.64
L 600.271634 -62.64
L 599.255056 -62.64
L 598.238477 -62.64
L 597.221898 -62.64
L 596.20532 -62.64
L 595.188741 -62.64
L 594.172163 -62.64
L 593.155584 -62.64
L 592.139005 -62.64
L 591.122427 -62.64
L 590.105848 -62.64
L 589.089269 -62.64
L 588.072691 -62.64
L 587.056112 -62.64
L 586.039534 -62.64
L 585.022955 -62.64
L 584.006376 -62.64
L 582.989798 -62.64
L 581.973219 -62.64
L 580.956641 -62.64
L 579.940062 -62.64
L 578.923483 -62.64
L 577.906905 -62.64
L 576.890326 -62.64
L 575.873747 -62.64
L 574.857169 -62.64
L 573.84059 -62.64
L 572.824012 -62.64
L 571.807433 -62.64
L 570.790854 -62.64
L 569.774276 -62.64
L 568.757697 -62.64
L 567.741119 -62.64
L 566.72454 -62.64
L 565.707961 -62.64
L 564.691383 -62.64
L 563.674804 -62.64
L 562.658226 -62.64
L 561.641647 -62.64
L 560.625068 -62.64
L 559.60849 -62.64
L 558.591911 -62.64
L 557.575332 -62.64
L 556.558754 -62.64
L 555.542175 -62.64
L 554.525597 -62.64
L 553.509018 -62.64
L 552.492439 -62.64
L 551.475861 -62.64
L 550.459282 -62.64
L 549.442704 -62.64
L 548.426125 -62.64
L 547.409546 -62.64
L 546.392968 -62.64
L 545.376389 -62.64
L 544.359811 -62.64
L 543.343232 -62.64
L 542.326653 -62.64
L 541.310075 -62.64
L 540.293496 -62.64
L 539.276917 -62.64
L 538.260339 -62.64
L 537.24376 -62.64
L 536.227182 -62.64
L 535.210603 -62.64
L 534.194024 -62.64
L 533.177446 -62.64
L 532.160867 -62.64
L 531.144289 -62.64
L 530.12771 -62.64
L 529.111131 -62.64
L 528.094553 -62.64
L 527.077974 -62.64
L 526.061396 -62.64
L 525.044817 -62.64
L 524.028238 -62.64
L 523.01166 -62.64
L 521.995081 -62.64
L 520.978502 -62.64
L 519.961924 -62.64
L 518.945345 -62.64
L 517.928767 -62.64
L 516.912188 -62.64
L 515.895609 -62.64
L 514.879031 -62.64
L 513.862452 -62.64
L 512.845874 -62.64
L 511.829295 -62.64
L 510.812716 -62.64
L 509.796138 -62.64
L 508.779559 -62.64
L 507.762981 -62.64
L 506.746402 -62.64
L 505.729823 -62.64
L 504.713245 -62.64
L 503.696666 -62.64
L 502.680087 -62.64
L 501.663509 -62.64
L 500.64693 -62.64
L 499.630352 -62.64
L 498.613773 -62.64
L 497.597194 -62.64
L 496.580616 -62.64
L 495.564037 -62.64
L 494.547459 -62.64
L 493.53088 -62.64
L 492.514301 -62.64
L 491.497723 -62.64
L 490.481144 -62.64
L 489.464565 -62.64
L 488.447987 -62.64
L 487.431408 -62.64
L 486.41483 -62.64
L 485.398251 -62.64
L 484.381672 -62.64
L 483.365094 -62.64
L 482.348515 -62.64
L 481.331937 -62.64
L 480.315358 -62.64
L 479.298779 -62.64
L 478.282201 -62.64
L 477.265622 -62.64
L 476.249044 -62.64
L 475.232465 -62.64
L 474.215886 -62.64
L 473.199308 -62.64
L 472.182729 -62.64
L 471.16615 -62.64
L 470.149572 -62.64
L 469.132993 -62.64
L 468.116415 -62.64
L 467.099836 -62.64
L 466.083257 -62.64
L 465.066679 -62.64
L 464.0501 -62.64
L 463.033522 -62.64
L 462.016943 -62.64
L 461.000364 -62.64
L 459.983786 -62.64
L 458.967207 -62.64
L 457.950629 -62.64
L 456.93405 -62.64
L 455.917471 -62.64
L 454.900893 -62.64
L 453.884314 -62.64
L 452.867735 -62.64
L 451.851157 -62.64
L 450.834578 -62.64
L 449.818 -62.64
L 448.801421 -62.64
L 447.784842 -62.64
L 446.768264 -62.64
L 445.751685 -62.64
L 444.735107 -62.64
L 443.718528 -62.64
L 442.701949 -62.64
L 441.685371 -62.64
L 440.668792 -62.64
L 439.652214 -62.64
L 438.635635 -62.64
L 437.619056 -62.64
L 436.602478 -62.64
L 435.585899 -62.64
L 434.56932 -62.64
L 433.552742 -62.64
L 432.536163 -62.64
L 431.519585 -62.64
L 430.503006 -62.64
L 429.486427 -62.64
L 428.469849 -62.64
L 427.45327 -62.64
L 426.436692 -62.64
L 425.420113 -62.64
L 424.403534 -62.64
L 423.386956 -62.64
L 422.370377 -62.64
L 421.353799 -62.64
L 420.33722 -62.64
L 419.320641 -62.64
L 418.304063 -62.64
L 417.287484 -62.64
L 416.270905 -62.64
L 415.254327 -62.64
L 414.237748 -62.64
L 413.22117 -62.64
L 412.204591 -62.64
L 411.188012 -62.64
L 410.171434 -62.64
L 409.154855 -62.64
L 408.138277 -62.64
L 407.121698 -62.64
L 406.105119 -62.64
L 405.088541 -62.64
L 404.071962 -62.64
L 403.055383 -62.64
L 402.038805 -62.64
L 401.022226 -62.64
L 400.005648 -62.64
L 398.989069 -62.64
L 397.97249 -62.64
L 396.955912 -62.64
L 395.939333 -62.64
L 394.922755 -62.64
L 393.906176 -62.64
L 392.889597 -62.64
L 391.873019 -62.64
L 390.85644 -62.64
L 389.839862 -62.64
L 388.823283 -62.64
L 387.806704 -62.64
L 386.790126 -62.64
L 385.773547 -62.64
L 384.756968 -62.64
L 383.74039 -62.64
L 382.723811 -62.64
L 381.707233 -62.64
L 380.690654 -62.64
L 379.674075 -62.64
L 378.657497 -62.64
L 377.640918 -62.64
L 376.62434 -62.64
L 375.607761 -62.64
L 374.591182 -62.64
L 373.574604 -62.64
L 372.558025 -62.64
L 371.541447 -62.64
L 370.524868 -62.64
L 369.508289 -62.64
L 368.491711 -62.64
L 367.475132 -62.64
L 366.458553 -62.64
L 365.441975 -62.64
L 364.425396 -62.64
L 363.408818 -62.64
L 362.392239 -62.64
L 361.37566 -62.64
L 360.359082 -62.64
L 359.342503 -62.64
L 358.325925 -62.64
L 357.309346 -62.64
L 356.292767 -62.64
L 355.276189 -62.64
L 354.25961 -62.64
L 353.243032 -62.64
L 352.226453 -62.64
L 351.209874 -62.64
L 350.193296 -62.64
L 349.176717 -62.64
L 348.160138 -62.64
L 347.14356 -62.64
L 346.126981 -62.64
L 345.110403 -62.64
L 344.093824 -62.64
L 343.077245 -62.64
L 342.060667 -62.64
L 341.044088 -62.64
L 340.02751 -62.64
L 339.010931 -62.64
L 337.994352 -62.64
L 336.977774 -62.64
L 335.961195 -62.64
L 334.944617 -62.64
L 333.928038 -62.64
L 332.911459 -62.64
L 331.894881 -62.64
L 330.878302 -62.64
L 329.861723 -62.64
L 328.845145 -62.64
L 327.828566 -62.64
L 326.811988 -62.64
L 325.795409 -62.64
L 324.77883 -62.64
L 323.762252 -62.64
L 322.745673 -62.64
L 321.729095 -62.64
L 320.712516 -62.64
L 319.695937 -62.64
L 318.679359 -62.64
L 317.66278 -62.64
L 316.646201 -62.64
L 315.629623 -62.64
L 314.613044 -62.64
L 313.596466 -62.64
L 312.579887 -62.64
L 311.563308 -62.64
L 310.54673 -62.64
L 309.530151 -62.64
L 308.513573 -62.64
L 307.496994 -62.64
L 306.480415 -62.64
L 305.463837 -62.64
L 304.447258 -62.64
L 303.43068 -62.64
L 302.414101 -62.64
L 301.397522 -62.64
L 300.380944 -62.64
L 299.364365 -62.64
L 298.347786 -62.64
L 297.331208 -62.64
L 296.314629 -62.64
L 295.298051 -62.64
L 294.281472 -62.64
L 293.264893 -62.64
L 292.248315 -62.64
L 291.231736 -62.64
L 290.215158 -62.64
L 289.198579 -62.64
L 288.182 -62.64
L 287.165422 -62.64
L 286.148843 -62.64
L 285.132265 -62.64
L 284.115686 -62.64
L 283.099107 -62.64
L 282.082529 -62.64
L 281.06595 -62.64
L 280.049371 -62.64
L 279.032793 -62.64
L 278.016214 -62.64
L 276.999636 -62.64
L 275.983057 -62.64
L 274.966478 -62.64
L 273.9499 -62.64
L 272.933321 -62.64
L 271.916743 -62.64
L 270.900164 -62.64
L 269.883585 -62.64
L 268.867007 -62.64
L 267.850428 -62.64
L 266.83385 -62.64
L 265.817271 -62.64
L 264.800692 -62.64
L 263.784114 -62.64
L 262.767535 -62.64
L 261.750956 -62.64
L 260.734378 -62.64
L 259.717799 -62.64
L 258.701221 -62.64
L 257.684642 -62.64
L 256.668063 -62.64
L 255.651485 -62.64
L 254.634906 -62.64
L 253.618328 -62.64
L 252.601749 -62.64
L 251.58517 -62.64
L 250.568592 -62.64
L 249.552013 -62.64
L 248.535435 -62.64
L 247.518856 -62.64
L 246.502277 -62.64
L 245.485699 -62.64
L 244.46912 -62.64
L 243.452541 -62.64
L 242.435963 -62.64
L 241.419384 -62.64
L 240.402806 -62.64
L 239.386227 -62.64
L 238.369648 -62.64
L 237.35307 -62.64
L 236.336491 -62.64
L 235.319913 -62.64
L 234.303334 -62.64
L 233.286755 -62.64
L 232.270177 -62.64
L 231.253598 -62.64
L 230.237019 -62.64
L 229.220441 -62.64
L 228.203862 -62.64
L 227.187284 -62.64
L 226.170705 -62.64
L 225.154126 -62.64
L 224.137548 -62.64
L 223.120969 -62.64
L 222.104391 -62.64
L 221.087812 -62.64
L 220.071233 -62.64
L 219.054655 -62.64
L 218.038076 -62.64
L 217.021498 -62.64
L 216.004919 -62.64
L 214.98834 -62.64
L 213.971762 -62.64
L 212.955183 -62.64
L 211.938604 -62.64
L 210.922026 -62.64
L 209.905447 -62.64
L 208.888869 -62.64
L 207.87229 -62.64
L 206.855711 -62.64
L 205.839133 -62.64
L 204.822554 -62.64
L 203.805976 -62.64
L 202.789397 -62.64
L 201.772818 -62.64
L 200.75624 -62.64
L 199.739661 -62.64
L 198.723083 -62.64
L 197.706504 -62.64
L 196.689925 -62.64
L 195.673347 -62.64
L 194.656768 -62.64
L 193.640189 -62.64
L 192.623611 -62.64
L 191.607032 -62.64
L 190.590454 -62.64
L 189.573875 -62.64
L 188.557296 -62.64
L 187.540718 -62.64
L 186.524139 -62.64
L 185.507561 -62.64
L 184.490982 -62.64
L 183.474403 -62.64
L 182.457825 -62.64
L 181.441246 -62.64
L 180.424668 -62.64
L 179.408089 -62.64
L 178.39151 -62.64
L 177.374932 -62.64
L 176.358353 -62.64
L 175.341774 -62.64
L 174.325196 -62.64
L 173.308617 -62.64
L 172.292039 -62.64
L 171.27546 -62.64
L 170.258881 -62.64
L 169.242303 -62.64
L 168.225724 -62.64
L 167.209146 -62.64
L 166.192567 -62.64
L 165.175988 -62.64
L 164.15941 -62.64
L 163.142831 -62.64
L 162.126253 -62.64
L 161.109674 -62.64
L 160.093095 -62.64
L 159.076517 -62.64
L 158.059938 -62.64
L 157.043359 -62.64
L 156.026781 -62.64
L 155.010202 -62.64
L 153.993624 -62.64
L 152.977045 -62.64
L 151.960466 -62.64
L 150.943888 -62.64
L 149.927309 -62.64
L 148.910731 -62.64
L 147.894152 -62.64
L 146.877573 -62.64
L 145.860995 -62.64
L 144.844416 -62.64
L 143.827837 -62.64
L 142.811259 -62.64
L 141.79468 -62.64
L 140.778102 -62.64
L 139.761523 -62.64
L 138.744944 -62.64
L 137.728366 -62.64
L 136.711787 -62.64
L 135.695209 -62.64
L 134.67863 -62.64
L 133.662051 -62.64
L 132.645473 -62.64
L 131.628894 -62.64
L 130.612316 -62.64
L 129.595737 -62.64
L 128.579158 -62.64
L 127.56258 -62.64
L 126.546001 -62.64
L 125.529422 -62.64
L 124.512844 -62.64
L 123.496265 -62.64
L 122.479687 -62.64
L 121.463108 -62.64
L 120.446529 -62.64
L 119.429951 -62.64
L 118.413372 -62.64
L 117.396794 -62.64
L 116.380215 -62.64
L 115.363636 -62.64
z
" style="stroke: #0000ff; stroke-opacity: 0.7"/>
                </defs>
                <g clip-path="url(#p4a5f3e1a51)">
                    <use xlink:href="#md1cb01b7ba" x="0" y="432" style="fill: #0000ff; fill-opacity: 0.7; stroke: #0000ff; stroke-opacity: 0.7"/>
                </g>
            </g>
            <g id="line2d_1">
                <path d="M 166.090909 239.76
L 166.090909 153.36
" clip-path="url(#p4a5f3e1a51)" style="fill: none; stroke: #8b4513; stroke-width: 5; stroke-linecap: square"/>
            </g>
            <g id="line2d_2">
                <path d="M 140.727273 153.36
L 191.454545 153.36
" clip-path="url(#p4a5f3e1a51)" style="fill: none; stroke: #228b22; stroke-width: 5; stroke-linecap: square"/>
            </g>
            <g id="line2d_3">
                <path d="M 195.077922 233.588571
L 195.077922 147.188571
" clip-path="url(#p4a5f3e1a51)" style="fill: none; stroke: #8b4513; stroke-width: 5; stroke-linecap: square"/>
            </g>
            <g id="line2d_4">
                <path d="M 169.714286 147.188571
L 220.441558 147.188571
" clip-path="url(#p4a5f3e1a51)" style="fill: none; stroke: #228b22; stroke-width: 5; stroke-linecap: square"/>
            </g>
            <g id="line2d_5">
                <path d="M 224.064935 227.417143
L 224.064935 141.017143
" clip-path="url(#p4a5f3e1a51)" style="fill: none; stroke: #8b4513; stroke-width: 5; stroke-linecap: square"/>
            </g>
            <g id="line2d_6">
                <path d="M 198.701299 141.017143
L 249.428571 141.017143
" clip-path="url(#p4a5f3e1a51)" style="fill: none; stroke: #228b22; stroke-width: 5; stroke-linecap: square"/>
            </g>
            <g id="line2d_7">
                <path d="M 253.051948 221.245714
L 253.051948 134.845714
" clip-path="url(#p4a5f3e1a51)" style="fill: none; stroke: #8b4513; stroke-width: 5; stroke-linecap: square"/>
            </g>
            <g id="line2d_8">
                <path d="M 227.688312 134.845714
L 278.415584 134.845714
" clip-path="url(#p4a5f3e1a51)" style="fill: none; stroke: #228b22; stroke-width: 5; stroke-linecap: square"/>
            </g>
            <g id="line2d_9">
                <path d="M 282.038961 215.074286
L 282.038961 128.674286
" clip-path="url(#p4a5f3e1a51)" style="fill: none; stroke: #8b4513; stroke-width: 5; stroke-linecap: square"/>
            </g>
            <g id="line2d_10">
                <path d="M 256.675325 128.674286
L 307.402597 128.674286
" clip-path="url(#p4a5f3e1a51)" style="fill: none; stroke: #228b22; stroke-width: 5; stroke-linecap: square"/>
            </g>
            <g id="line2d_11">
                <path d="M 311.025974 208.902857
L 311.025974 122.502857
" clip-path="url(#p4a5f3e1a51)" style="fill: none; stroke: #8b4513; stroke-width: 5; stroke-linecap: square"/>
            </g>
            <g id="line2d_12">
                <path d="M 285.662338 122.502857
L 336.38961 122.502857
" clip-path="url(#p4a5f3e1a51)" style="fill: none; stroke: #228b22; stroke-width: 5; stroke-linecap: square"/>
            </g>
            <g id="line2d_13">
                <path d="M 340.012987 202.731429
L 340.012987 116.331429
" clip-path="url(#p4a5f3e1a51)" style="fill: none; stroke: #8b4513; stroke-width: 5; stroke-linecap: square"/>
            </g>
            <g id="line2d_14">
                <path d="M 314.649351 116.331429
L 365.376623 116.331429
" clip-path="url(#p4a5f3e1a51)" style="fill: none; stroke: #228b22; stroke-width: 5; stroke-linecap: square"/>
            </g>
            <g id="line2d_15">
                <path d="M 369 196.56
L 369 110.16
" clip-path="url(#p4a5f3e1a51)" style="fill: none; stroke: #8b4513; stroke-width: 5; stroke-linecap: square"/>
            </g>
            <g id="line2d_16">
                <path d="M 343.636364 110.16
L 394.363636 110.16
" clip-path="url(#p4a5f3e1a51)" style="fill: none; stroke: #228b22; stroke-width: 5; stroke-linecap: square"/>
            </g>
            <g id="line2d_17">
                <path d="M 397.987013 190.388571
L 397.987013 103.988571
" clip-path="url(#p4a5f3e1a51)" style="fill: none; stroke: #8b4513; stroke-width: 5; stroke-linecap: square"/>
            </g>
            <g id="line2d_18">
                <path d="M 372.623377 103.988571
L 423.350649 103.988571
" clip-path="url(#p4a5f3e1a51)" style="fill: none; stroke: #228b22; stroke-width: 5; stroke-linecap: square"/>
            </g>
            <g id="line2d_19">
                <path d="M 426.974026 184.217143
L 426.974026 97.817143
" clip-path="url(#p4a5f3e1a51)" style="fill: none; stroke: #8b4513; stroke-width: 5; stroke-linecap: square"/>
            </g>
            <g id="line2d_20">
                <path d="M 401.61039 97.817143
L 452.337662 97.817143
" clip-path="url(#p4a5f3e1a51)" style="fill: none; stroke: #228b22; stroke-width: 5; stroke-linecap: square"/>
            </g>
            <g id="line2d_21">
                <path d="M 455.961039 178.045714
L 455.961039 91.645714
" clip-path="url(#p4a5f3e1a51)" style="fill: none; stroke: #8b4513; stroke-width: 5; stroke-linecap: square"/>
            </g>
            <g id="line2d_22">
                <path d="M 430.597403 91.645714
L 481.324675 91.645714
" clip-path="url(#p4a5f3e1a51)" style="fill: none; stroke: #228b22; stroke-width: 5; stroke-linecap: square"/>
            </g>
            <g id="line2d_23">
                <path d="M 484.948052 171.874286
L 484.948052 85.474286
" clip-path="url(#p4a5f3e1a51)" style="fill: none; stroke: #8b4513; stroke-width: 5; stroke-linecap: square"/>
            </g>
            <g id="line2d_24">
                <path d="M 459.584416 85.474286
L 510.311688 85.474286
" clip-path="url(#p4a5f3e1a51)" style="fill: none; stroke: #228b22; stroke-width: 5; stroke-linecap: square"/>
            </g>
            <g id="line2d_25">
                <path d="M 513.935065 165.702857
L 513.935065 79.302857
" clip-path="url(#p4a5f3e1a51)" style="fill: none; stroke: #8b4513; stroke-width: 5; stroke-linecap: square"/>
            </g>
            <g id="line2d_26">
                <path d="M 488.571429 79.302857
L 539.298701 79.302857
" clip-path="url(#p4a5f3e1a51)" style="fill: none; stroke: #228b22; stroke-width: 5; stroke-linecap: square"/>
            </g>
            <g id="line2d_27">
                <path d="M 542.922078 159.531429
L 542.922078 73.131429
" clip-path="url(#p4a5f3e1a51)" style="fill: none; stroke: #8b4513; stroke-width: 5; stroke-linecap: square"/>
            </g>
            <g id="line2d_28">
                <path d="M 517.558442 73.131429
L 568.285714 73.131429
" clip-path="url(#p4a5f3e1a51)" style="fill: none; stroke: #228b22; stroke-width: 5; stroke-linecap: square"/>
            </g>
            <g id="line2d_29">
                <path d="M 571.909091 153.36
L 571.909091 66.96
" clip-path="url(#p4a5f3e1a51)" style="fill: none; stroke: #8b4513; stroke-width: 5; stroke-linecap: square"/>
            </g>
            <g id="line2d_30">
                <path d="M 546.545455 66.96
L 597.272727 66.96
" clip-path="url(#p4a5f3e1a51)" style="fill: none; stroke: #228b22; stroke-width: 5; stroke-linecap: square"/>
            </g>
        </g>
    </g>
    <defs>
        <clipPath id="p4a5f3e1a51">
            <rect x="90" y="51.84" width="558" height="332.64"/>
        </clipPath>
    </defs>
</svg>
